<mxfile host="app.diagrams.net" modified="2021-08-02T10:46:10.716Z" agent="5.0 (Macintosh; Intel Mac OS X 10_15_7) AppleWebKit/605.1.15 (KHTML, like Gecko) Version/14.1.1 Safari/605.1.15" etag="ptcXLXH8ZBxBk9BfriSp" version="14.9.3" type="github">
  <diagram id="TLhI9kus6kTMUz7aKpYK" name="Page-1">
    <mxGraphModel dx="599" dy="2022" grid="1" gridSize="10" guides="1" tooltips="1" connect="1" arrows="1" fold="1" page="1" pageScale="1" pageWidth="827" pageHeight="1169" math="0" shadow="0">
      <root>
        <mxCell id="0" />
        <mxCell id="1" parent="0" />
        <mxCell id="bM2cTp-3KWbt0_glbLCN-51" style="rounded=0;orthogonalLoop=1;jettySize=auto;html=1;startArrow=oval;startFill=0;endArrow=none;endFill=0;entryX=0.25;entryY=0;entryDx=0;entryDy=0;targetPerimeterSpacing=0;exitX=0.5;exitY=1;exitDx=0;exitDy=0;" parent="1" edge="1">
          <mxGeometry relative="1" as="geometry">
            <mxPoint x="1309.7399999999998" y="-1104.9999999999995" as="sourcePoint" />
            <mxPoint x="1309.7399999999998" y="-1084.9999999999995" as="targetPoint" />
          </mxGeometry>
        </mxCell>
        <mxCell id="bM2cTp-3KWbt0_glbLCN-52" style="rounded=0;orthogonalLoop=1;jettySize=auto;html=1;startArrow=oval;startFill=0;endArrow=none;endFill=0;targetPerimeterSpacing=0;entryX=0.75;entryY=0;entryDx=0;entryDy=0;exitX=0.5;exitY=1;exitDx=0;exitDy=0;edgeStyle=orthogonalEdgeStyle;" parent="1" edge="1">
          <mxGeometry relative="1" as="geometry">
            <mxPoint x="1409.7399999999998" y="-1104.9999999999995" as="sourcePoint" />
            <mxPoint x="1379.7399999999998" y="-1084.9999999999995" as="targetPoint" />
            <Array as="points">
              <mxPoint x="1409.74" y="-1095" />
              <mxPoint x="1379.74" y="-1095" />
            </Array>
          </mxGeometry>
        </mxCell>
        <mxCell id="bM2cTp-3KWbt0_glbLCN-53" style="rounded=0;orthogonalLoop=1;jettySize=auto;html=1;startArrow=oval;startFill=0;endArrow=none;endFill=0;entryX=0.25;entryY=0;entryDx=0;entryDy=0;targetPerimeterSpacing=0;exitX=0.5;exitY=1;exitDx=0;exitDy=0;" parent="1" edge="1">
          <mxGeometry relative="1" as="geometry">
            <mxPoint x="1359.7399999999998" y="-1104.9999999999995" as="sourcePoint" />
            <mxPoint x="1359.7399999999998" y="-1084.9999999999995" as="targetPoint" />
          </mxGeometry>
        </mxCell>
        <mxCell id="bM2cTp-3KWbt0_glbLCN-54" style="rounded=0;orthogonalLoop=1;jettySize=auto;html=1;startArrow=oval;startFill=1;endArrow=none;endFill=0;entryX=0.137;entryY=-0.013;entryDx=0;entryDy=0;targetPerimeterSpacing=0;exitX=0.5;exitY=1;exitDx=0;exitDy=0;entryPerimeter=0;edgeStyle=orthogonalEdgeStyle;" parent="1" edge="1">
          <mxGeometry relative="1" as="geometry">
            <mxPoint x="1262.2399999999998" y="-1104.9999999999995" as="sourcePoint" />
            <mxPoint x="1286.1800000000003" y="-1085.7799999999993" as="targetPoint" />
            <Array as="points">
              <mxPoint x="1262.74" y="-1095" />
              <mxPoint x="1285.74" y="-1095" />
            </Array>
          </mxGeometry>
        </mxCell>
        <mxCell id="jxzHoHlwi5edq1WQUsf_-16" style="edgeStyle=orthogonalEdgeStyle;rounded=0;orthogonalLoop=1;jettySize=auto;html=1;startArrow=none;startFill=0;endArrow=none;endFill=0;targetPerimeterSpacing=0;" parent="1" source="jxzHoHlwi5edq1WQUsf_-46" target="jxzHoHlwi5edq1WQUsf_-18" edge="1">
          <mxGeometry relative="1" as="geometry" />
        </mxCell>
        <mxCell id="jxzHoHlwi5edq1WQUsf_-17" style="edgeStyle=orthogonalEdgeStyle;rounded=0;orthogonalLoop=1;jettySize=auto;html=1;entryX=0;entryY=0.5;entryDx=0;entryDy=0;startArrow=none;startFill=0;endArrow=none;endFill=0;targetPerimeterSpacing=0;" parent="1" source="jxzHoHlwi5edq1WQUsf_-18" target="jxzHoHlwi5edq1WQUsf_-58" edge="1">
          <mxGeometry relative="1" as="geometry" />
        </mxCell>
        <mxCell id="jxzHoHlwi5edq1WQUsf_-18" value="LAVORA" style="rhombus;whiteSpace=wrap;html=1;" parent="1" vertex="1">
          <mxGeometry x="1437.5" y="-1095" width="120" height="80" as="geometry" />
        </mxCell>
        <mxCell id="jxzHoHlwi5edq1WQUsf_-19" style="edgeStyle=orthogonalEdgeStyle;rounded=0;orthogonalLoop=1;jettySize=auto;html=1;entryX=1;entryY=0.5;entryDx=0;entryDy=0;startArrow=none;startFill=0;endArrow=none;endFill=0;targetPerimeterSpacing=0;exitX=0;exitY=0.5;exitDx=0;exitDy=0;" parent="1" source="jxzHoHlwi5edq1WQUsf_-20" target="jxzHoHlwi5edq1WQUsf_-30" edge="1">
          <mxGeometry relative="1" as="geometry" />
        </mxCell>
        <mxCell id="jxzHoHlwi5edq1WQUsf_-20" value="ORGANIZZATO" style="rhombus;whiteSpace=wrap;html=1;" parent="1" vertex="1">
          <mxGeometry x="1105" y="-1095" width="120" height="80" as="geometry" />
        </mxCell>
        <mxCell id="jxzHoHlwi5edq1WQUsf_-21" style="edgeStyle=orthogonalEdgeStyle;rounded=0;orthogonalLoop=1;jettySize=auto;html=1;entryX=1;entryY=0.5;entryDx=0;entryDy=0;startArrow=none;startFill=0;endArrow=none;endFill=0;targetPerimeterSpacing=0;exitX=0;exitY=0.5;exitDx=0;exitDy=0;" parent="1" source="jxzHoHlwi5edq1WQUsf_-46" target="jxzHoHlwi5edq1WQUsf_-20" edge="1">
          <mxGeometry relative="1" as="geometry">
            <mxPoint x="1345" y="-1055" as="sourcePoint" />
            <mxPoint x="1265" y="-1055.3600000000001" as="targetPoint" />
          </mxGeometry>
        </mxCell>
        <mxCell id="jxzHoHlwi5edq1WQUsf_-22" style="edgeStyle=orthogonalEdgeStyle;rounded=0;orthogonalLoop=1;jettySize=auto;html=1;entryX=0;entryY=0.5;entryDx=0;entryDy=0;startArrow=none;startFill=0;endArrow=none;endFill=0;targetPerimeterSpacing=0;" parent="1" source="jxzHoHlwi5edq1WQUsf_-24" target="jxzHoHlwi5edq1WQUsf_-60" edge="1">
          <mxGeometry relative="1" as="geometry" />
        </mxCell>
        <mxCell id="jxzHoHlwi5edq1WQUsf_-23" style="edgeStyle=orthogonalEdgeStyle;rounded=0;orthogonalLoop=1;jettySize=auto;html=1;startArrow=none;startFill=0;endArrow=none;endFill=0;targetPerimeterSpacing=0;entryX=0.905;entryY=0.989;entryDx=0;entryDy=0;entryPerimeter=0;" parent="1" source="jxzHoHlwi5edq1WQUsf_-24" target="jxzHoHlwi5edq1WQUsf_-30" edge="1">
          <mxGeometry relative="1" as="geometry">
            <mxPoint x="1054" y="-1025" as="targetPoint" />
          </mxGeometry>
        </mxCell>
        <mxCell id="jxzHoHlwi5edq1WQUsf_-24" value="GESTISCE" style="rhombus;whiteSpace=wrap;html=1;" parent="1" vertex="1">
          <mxGeometry x="1272.5" y="-935" width="120" height="80" as="geometry" />
        </mxCell>
        <mxCell id="jxzHoHlwi5edq1WQUsf_-25" value="(1,1)" style="text;html=1;strokeColor=none;fillColor=none;align=center;verticalAlign=middle;whiteSpace=wrap;rounded=0;" parent="1" vertex="1">
          <mxGeometry x="1615" y="-925" width="40" height="30" as="geometry" />
        </mxCell>
        <mxCell id="jxzHoHlwi5edq1WQUsf_-26" style="edgeStyle=orthogonalEdgeStyle;rounded=0;orthogonalLoop=1;jettySize=auto;html=1;entryX=0.5;entryY=1;entryDx=0;entryDy=0;endArrow=none;endFill=0;" parent="1" source="jxzHoHlwi5edq1WQUsf_-28" target="jxzHoHlwi5edq1WQUsf_-30" edge="1">
          <mxGeometry relative="1" as="geometry" />
        </mxCell>
        <mxCell id="jxzHoHlwi5edq1WQUsf_-27" style="edgeStyle=orthogonalEdgeStyle;rounded=0;orthogonalLoop=1;jettySize=auto;html=1;entryX=0;entryY=0.5;entryDx=0;entryDy=0;endArrow=none;endFill=0;" parent="1" source="jxzHoHlwi5edq1WQUsf_-28" target="jxzHoHlwi5edq1WQUsf_-78" edge="1">
          <mxGeometry relative="1" as="geometry" />
        </mxCell>
        <mxCell id="jxzHoHlwi5edq1WQUsf_-28" value="DIVISO" style="rhombus;whiteSpace=wrap;html=1;" parent="1" vertex="1">
          <mxGeometry x="945" y="-800" width="120" height="80" as="geometry" />
        </mxCell>
        <mxCell id="jxzHoHlwi5edq1WQUsf_-29" value="" style="group" parent="1" vertex="1" connectable="0">
          <mxGeometry x="840" y="-1160" width="265" height="165" as="geometry" />
        </mxCell>
        <mxCell id="jxzHoHlwi5edq1WQUsf_-30" value="CENTRO" style="rounded=1;whiteSpace=wrap;html=1;" parent="jxzHoHlwi5edq1WQUsf_-29" vertex="1">
          <mxGeometry x="105" y="75" width="120" height="60" as="geometry" />
        </mxCell>
        <mxCell id="jxzHoHlwi5edq1WQUsf_-31" style="rounded=0;orthogonalLoop=1;jettySize=auto;html=1;entryX=0.75;entryY=0;entryDx=0;entryDy=0;startArrow=oval;startFill=1;endArrow=none;endFill=0;exitX=0.5;exitY=1;exitDx=0;exitDy=0;" parent="jxzHoHlwi5edq1WQUsf_-29" source="jxzHoHlwi5edq1WQUsf_-32" target="jxzHoHlwi5edq1WQUsf_-30" edge="1">
          <mxGeometry relative="1" as="geometry">
            <mxPoint x="175" y="75" as="targetPoint" />
          </mxGeometry>
        </mxCell>
        <mxCell id="jxzHoHlwi5edq1WQUsf_-32" value="Codice&lt;br&gt;Centro" style="text;html=1;strokeColor=none;fillColor=none;align=center;verticalAlign=middle;whiteSpace=wrap;rounded=0;labelPosition=center;verticalLabelPosition=middle;rotation=0;direction=east;" parent="jxzHoHlwi5edq1WQUsf_-29" vertex="1">
          <mxGeometry x="165" width="60" height="55" as="geometry" />
        </mxCell>
        <mxCell id="jxzHoHlwi5edq1WQUsf_-33" value="Indirizzo&lt;br&gt;Centro" style="text;html=1;strokeColor=none;fillColor=none;align=center;verticalAlign=middle;whiteSpace=wrap;rounded=0;rotation=0;" parent="jxzHoHlwi5edq1WQUsf_-29" vertex="1">
          <mxGeometry x="105" y="5" width="60" height="50" as="geometry" />
        </mxCell>
        <mxCell id="jxzHoHlwi5edq1WQUsf_-34" value="Telefono&lt;br&gt;Centro" style="text;html=1;strokeColor=none;fillColor=none;align=center;verticalAlign=middle;whiteSpace=wrap;rounded=0;rotation=0;" parent="jxzHoHlwi5edq1WQUsf_-29" vertex="1">
          <mxGeometry y="55" width="60" height="40" as="geometry" />
        </mxCell>
        <mxCell id="jxzHoHlwi5edq1WQUsf_-35" value="Email&lt;br&gt;Centro" style="text;html=1;strokeColor=none;fillColor=none;align=center;verticalAlign=middle;whiteSpace=wrap;rounded=0;" parent="jxzHoHlwi5edq1WQUsf_-29" vertex="1">
          <mxGeometry x="10" y="115" width="50" height="40" as="geometry" />
        </mxCell>
        <mxCell id="jxzHoHlwi5edq1WQUsf_-36" style="rounded=0;orthogonalLoop=1;jettySize=auto;html=1;startArrow=oval;startFill=0;endArrow=none;endFill=0;exitX=0.5;exitY=1;exitDx=0;exitDy=0;entryX=0.25;entryY=0;entryDx=0;entryDy=0;targetPerimeterSpacing=0;" parent="jxzHoHlwi5edq1WQUsf_-29" source="jxzHoHlwi5edq1WQUsf_-33" target="jxzHoHlwi5edq1WQUsf_-30" edge="1">
          <mxGeometry relative="1" as="geometry">
            <mxPoint x="150" y="-15.480000000000018" as="sourcePoint" />
            <mxPoint x="124.99999999999977" y="75" as="targetPoint" />
          </mxGeometry>
        </mxCell>
        <mxCell id="jxzHoHlwi5edq1WQUsf_-37" style="edgeStyle=orthogonalEdgeStyle;rounded=0;orthogonalLoop=1;jettySize=auto;html=1;startArrow=oval;startFill=0;endArrow=none;endFill=0;entryX=0;entryY=0.667;entryDx=0;entryDy=0;entryPerimeter=0;exitX=1;exitY=0.5;exitDx=0;exitDy=0;" parent="jxzHoHlwi5edq1WQUsf_-29" source="jxzHoHlwi5edq1WQUsf_-35" target="jxzHoHlwi5edq1WQUsf_-30" edge="1">
          <mxGeometry relative="1" as="geometry">
            <mxPoint x="105" y="45" as="sourcePoint" />
            <mxPoint x="115" y="125" as="targetPoint" />
            <Array as="points">
              <mxPoint x="95" y="135" />
              <mxPoint x="95" y="115" />
            </Array>
          </mxGeometry>
        </mxCell>
        <mxCell id="jxzHoHlwi5edq1WQUsf_-38" style="edgeStyle=orthogonalEdgeStyle;rounded=0;orthogonalLoop=1;jettySize=auto;html=1;startArrow=oval;startFill=0;endArrow=none;endFill=0;exitX=1;exitY=0.5;exitDx=0;exitDy=0;entryX=0;entryY=0.25;entryDx=0;entryDy=0;" parent="jxzHoHlwi5edq1WQUsf_-29" source="jxzHoHlwi5edq1WQUsf_-34" target="jxzHoHlwi5edq1WQUsf_-30" edge="1">
          <mxGeometry relative="1" as="geometry">
            <mxPoint x="95" y="58" as="sourcePoint" />
            <mxPoint x="198.03999999999996" y="75" as="targetPoint" />
            <Array as="points">
              <mxPoint x="95" y="75" />
              <mxPoint x="95" y="95" />
              <mxPoint x="105" y="95" />
            </Array>
          </mxGeometry>
        </mxCell>
        <mxCell id="jxzHoHlwi5edq1WQUsf_-39" value="(1,N)" style="text;html=1;strokeColor=none;fillColor=none;align=center;verticalAlign=middle;whiteSpace=wrap;rounded=0;" parent="jxzHoHlwi5edq1WQUsf_-29" vertex="1">
          <mxGeometry x="225" y="75" width="40" height="30" as="geometry" />
        </mxCell>
        <mxCell id="jxzHoHlwi5edq1WQUsf_-40" value="(1,N)" style="text;html=1;strokeColor=none;fillColor=none;align=center;verticalAlign=middle;whiteSpace=wrap;rounded=0;" parent="jxzHoHlwi5edq1WQUsf_-29" vertex="1">
          <mxGeometry x="65" y="115" width="30" height="20" as="geometry" />
        </mxCell>
        <mxCell id="jxzHoHlwi5edq1WQUsf_-41" value="(1,N)" style="text;html=1;strokeColor=none;fillColor=none;align=center;verticalAlign=middle;whiteSpace=wrap;rounded=0;" parent="jxzHoHlwi5edq1WQUsf_-29" vertex="1">
          <mxGeometry x="65" y="75" width="30" height="20" as="geometry" />
        </mxCell>
        <mxCell id="jxzHoHlwi5edq1WQUsf_-42" value="(1,1)" style="text;html=1;strokeColor=none;fillColor=none;align=center;verticalAlign=middle;whiteSpace=wrap;rounded=0;" parent="jxzHoHlwi5edq1WQUsf_-29" vertex="1">
          <mxGeometry x="215" y="135" width="40" height="30" as="geometry" />
        </mxCell>
        <mxCell id="jxzHoHlwi5edq1WQUsf_-43" value="(1,N)" style="text;html=1;strokeColor=none;fillColor=none;align=center;verticalAlign=middle;whiteSpace=wrap;rounded=0;" parent="jxzHoHlwi5edq1WQUsf_-29" vertex="1">
          <mxGeometry x="165" y="135" width="40" height="30" as="geometry" />
        </mxCell>
        <mxCell id="jxzHoHlwi5edq1WQUsf_-44" value="" style="group" parent="1" vertex="1" connectable="0">
          <mxGeometry x="1225" y="-1150" width="212.5" height="125" as="geometry" />
        </mxCell>
        <mxCell id="jxzHoHlwi5edq1WQUsf_-45" value="" style="group" parent="jxzHoHlwi5edq1WQUsf_-44" vertex="1" connectable="0">
          <mxGeometry x="32.5" width="150" height="125" as="geometry" />
        </mxCell>
        <mxCell id="jxzHoHlwi5edq1WQUsf_-46" value="TURNO" style="rounded=1;whiteSpace=wrap;html=1;" parent="jxzHoHlwi5edq1WQUsf_-45" vertex="1">
          <mxGeometry x="17.5" y="65" width="120" height="60" as="geometry" />
        </mxCell>
        <mxCell id="jxzHoHlwi5edq1WQUsf_-47" value="Data&lt;br&gt;Inizio" style="text;html=1;strokeColor=none;fillColor=none;align=center;verticalAlign=middle;whiteSpace=wrap;rounded=0;rotation=0;" parent="jxzHoHlwi5edq1WQUsf_-45" vertex="1">
          <mxGeometry x="20" width="60" height="45" as="geometry" />
        </mxCell>
        <mxCell id="jxzHoHlwi5edq1WQUsf_-49" value="Data&lt;br&gt;Fine" style="text;html=1;strokeColor=none;fillColor=none;align=center;verticalAlign=middle;whiteSpace=wrap;rounded=0;rotation=0;" parent="jxzHoHlwi5edq1WQUsf_-45" vertex="1">
          <mxGeometry x="122.5" width="60" height="45" as="geometry" />
        </mxCell>
        <mxCell id="jxzHoHlwi5edq1WQUsf_-51" value="Carica" style="text;html=1;strokeColor=none;fillColor=none;align=center;verticalAlign=middle;whiteSpace=wrap;rounded=0;rotation=0;" parent="jxzHoHlwi5edq1WQUsf_-45" vertex="1">
          <mxGeometry x="82.5" y="10" width="40" height="35" as="geometry" />
        </mxCell>
        <mxCell id="jxzHoHlwi5edq1WQUsf_-53" value="ID Turno" style="text;html=1;strokeColor=none;fillColor=none;align=center;verticalAlign=middle;whiteSpace=wrap;rounded=0;rotation=0;" parent="jxzHoHlwi5edq1WQUsf_-45" vertex="1">
          <mxGeometry x="-16.5" y="5" width="40" height="40" as="geometry" />
        </mxCell>
        <mxCell id="jxzHoHlwi5edq1WQUsf_-55" value="(1,1)" style="text;html=1;strokeColor=none;fillColor=none;align=center;verticalAlign=middle;whiteSpace=wrap;rounded=0;" parent="jxzHoHlwi5edq1WQUsf_-45" vertex="1">
          <mxGeometry x="-22.5" y="70" width="40" height="25" as="geometry" />
        </mxCell>
        <mxCell id="jxzHoHlwi5edq1WQUsf_-56" value="(1,1)" style="text;html=1;strokeColor=none;fillColor=none;align=center;verticalAlign=middle;whiteSpace=wrap;rounded=0;" parent="jxzHoHlwi5edq1WQUsf_-44" vertex="1">
          <mxGeometry x="172.5" y="70" width="40" height="25" as="geometry" />
        </mxCell>
        <mxCell id="jxzHoHlwi5edq1WQUsf_-57" value="" style="group" parent="1" vertex="1" connectable="0">
          <mxGeometry x="1527.5" y="-1085" width="270" height="220" as="geometry" />
        </mxCell>
        <mxCell id="jxzHoHlwi5edq1WQUsf_-58" value="IMPIEGATO" style="rounded=1;whiteSpace=wrap;html=1;" parent="jxzHoHlwi5edq1WQUsf_-57" vertex="1">
          <mxGeometry x="70" width="120" height="60" as="geometry" />
        </mxCell>
        <mxCell id="jxzHoHlwi5edq1WQUsf_-59" style="edgeStyle=orthogonalEdgeStyle;rounded=0;orthogonalLoop=1;jettySize=auto;html=1;startArrow=none;startFill=0;endArrow=none;endFill=0;" parent="jxzHoHlwi5edq1WQUsf_-57" source="jxzHoHlwi5edq1WQUsf_-60" edge="1">
          <mxGeometry relative="1" as="geometry">
            <mxPoint x="130" y="130" as="targetPoint" />
            <Array as="points">
              <mxPoint x="60" y="130" />
            </Array>
          </mxGeometry>
        </mxCell>
        <mxCell id="jxzHoHlwi5edq1WQUsf_-60" value="RESPONSABILE" style="rounded=1;whiteSpace=wrap;html=1;" parent="jxzHoHlwi5edq1WQUsf_-57" vertex="1">
          <mxGeometry y="160" width="120" height="60" as="geometry" />
        </mxCell>
        <mxCell id="jxzHoHlwi5edq1WQUsf_-61" style="edgeStyle=orthogonalEdgeStyle;rounded=0;orthogonalLoop=1;jettySize=auto;html=1;startArrow=none;startFill=0;endArrow=none;endFill=0;" parent="jxzHoHlwi5edq1WQUsf_-57" source="jxzHoHlwi5edq1WQUsf_-62" edge="1">
          <mxGeometry relative="1" as="geometry">
            <mxPoint x="130" y="130" as="targetPoint" />
            <Array as="points">
              <mxPoint x="210" y="130" />
            </Array>
          </mxGeometry>
        </mxCell>
        <mxCell id="jxzHoHlwi5edq1WQUsf_-62" value="MANAGER" style="rounded=1;whiteSpace=wrap;html=1;" parent="jxzHoHlwi5edq1WQUsf_-57" vertex="1">
          <mxGeometry x="150" y="160" width="120" height="60" as="geometry" />
        </mxCell>
        <mxCell id="jxzHoHlwi5edq1WQUsf_-63" value="" style="shape=flexArrow;endArrow=classic;html=1;strokeWidth=1;width=21.568627450980394;endSize=7.73921568627451;" parent="jxzHoHlwi5edq1WQUsf_-57" edge="1">
          <mxGeometry width="50" height="50" relative="1" as="geometry">
            <mxPoint x="130" y="130" as="sourcePoint" />
            <mxPoint x="130" y="60" as="targetPoint" />
          </mxGeometry>
        </mxCell>
        <mxCell id="jxzHoHlwi5edq1WQUsf_-64" value="(0,N)" style="text;html=1;strokeColor=none;fillColor=none;align=center;verticalAlign=middle;whiteSpace=wrap;rounded=0;" parent="1" vertex="1">
          <mxGeometry x="1557.5" y="-1080" width="40" height="25" as="geometry" />
        </mxCell>
        <mxCell id="jxzHoHlwi5edq1WQUsf_-65" value="(1,1)" style="text;html=1;strokeColor=none;fillColor=none;align=center;verticalAlign=middle;whiteSpace=wrap;rounded=0;" parent="1" vertex="1">
          <mxGeometry x="1484.5" y="-920" width="40" height="25" as="geometry" />
        </mxCell>
        <mxCell id="jxzHoHlwi5edq1WQUsf_-66" style="rounded=0;orthogonalLoop=1;jettySize=auto;html=1;entryX=0.75;entryY=0;entryDx=0;entryDy=0;startArrow=oval;startFill=1;endArrow=none;endFill=0;exitX=0.5;exitY=1;exitDx=0;exitDy=0;" parent="1" source="jxzHoHlwi5edq1WQUsf_-67" edge="1">
          <mxGeometry relative="1" as="geometry">
            <mxPoint x="1627.5" y="-1085" as="targetPoint" />
          </mxGeometry>
        </mxCell>
        <mxCell id="jxzHoHlwi5edq1WQUsf_-67" value="CF&lt;br&gt;Impiegato" style="text;html=1;strokeColor=none;fillColor=none;align=center;verticalAlign=middle;whiteSpace=wrap;rounded=0;labelPosition=center;verticalLabelPosition=middle;rotation=0;direction=east;" parent="1" vertex="1">
          <mxGeometry x="1597.5" y="-1160" width="60" height="55" as="geometry" />
        </mxCell>
        <mxCell id="jxzHoHlwi5edq1WQUsf_-68" style="rounded=0;orthogonalLoop=1;jettySize=auto;html=1;startArrow=oval;startFill=0;endArrow=none;endFill=0;exitX=0.5;exitY=1;exitDx=0;exitDy=0;entryX=0.25;entryY=0;entryDx=0;entryDy=0;targetPerimeterSpacing=0;" parent="1" source="jxzHoHlwi5edq1WQUsf_-69" edge="1">
          <mxGeometry relative="1" as="geometry">
            <mxPoint x="-292" y="-615.48" as="sourcePoint" />
            <mxPoint x="1687.5" y="-1085" as="targetPoint" />
          </mxGeometry>
        </mxCell>
        <mxCell id="jxzHoHlwi5edq1WQUsf_-69" value="Nome&lt;br&gt;Impiegato" style="text;html=1;strokeColor=none;fillColor=none;align=center;verticalAlign=middle;whiteSpace=wrap;rounded=0;rotation=0;" parent="1" vertex="1">
          <mxGeometry x="1657.5" y="-1155" width="60" height="50" as="geometry" />
        </mxCell>
        <mxCell id="jxzHoHlwi5edq1WQUsf_-70" value="Titolo di&lt;br&gt;studio" style="text;html=1;strokeColor=none;fillColor=none;align=center;verticalAlign=middle;whiteSpace=wrap;rounded=0;rotation=0;" parent="1" vertex="1">
          <mxGeometry x="1757.5" y="-1095" width="55" height="40" as="geometry" />
        </mxCell>
        <mxCell id="jxzHoHlwi5edq1WQUsf_-71" value="Telefono&lt;br&gt;Impiegato" style="text;html=1;strokeColor=none;fillColor=none;align=center;verticalAlign=middle;whiteSpace=wrap;rounded=0;" parent="1" vertex="1">
          <mxGeometry x="1757.5" y="-1055" width="60" height="40" as="geometry" />
        </mxCell>
        <mxCell id="jxzHoHlwi5edq1WQUsf_-72" style="rounded=0;orthogonalLoop=1;jettySize=auto;html=1;startArrow=oval;startFill=0;endArrow=none;endFill=0;entryX=1;entryY=0.75;entryDx=0;entryDy=0;exitX=-0.024;exitY=0.507;exitDx=0;exitDy=0;exitPerimeter=0;edgeStyle=orthogonalEdgeStyle;" parent="1" source="jxzHoHlwi5edq1WQUsf_-71" target="jxzHoHlwi5edq1WQUsf_-58" edge="1">
          <mxGeometry relative="1" as="geometry">
            <mxPoint x="-92" y="-585" as="sourcePoint" />
            <mxPoint x="-92" y="-514.98" as="targetPoint" />
            <Array as="points">
              <mxPoint x="1737.5" y="-1035" />
              <mxPoint x="1737.5" y="-1040" />
            </Array>
          </mxGeometry>
        </mxCell>
        <mxCell id="jxzHoHlwi5edq1WQUsf_-73" style="rounded=0;orthogonalLoop=1;jettySize=auto;html=1;startArrow=oval;startFill=0;endArrow=none;endFill=0;exitX=0;exitY=0.5;exitDx=0;exitDy=0;edgeStyle=orthogonalEdgeStyle;" parent="1" source="jxzHoHlwi5edq1WQUsf_-70" edge="1">
          <mxGeometry relative="1" as="geometry">
            <mxPoint x="-102" y="-572" as="sourcePoint" />
            <mxPoint x="1717.5" y="-1070" as="targetPoint" />
          </mxGeometry>
        </mxCell>
        <mxCell id="jxzHoHlwi5edq1WQUsf_-74" style="edgeStyle=orthogonalEdgeStyle;rounded=0;orthogonalLoop=1;jettySize=auto;html=1;entryX=1;entryY=0.5;entryDx=0;entryDy=0;endArrow=none;endFill=0;exitX=0;exitY=0.5;exitDx=0;exitDy=0;" parent="1" source="jxzHoHlwi5edq1WQUsf_-123" target="jxzHoHlwi5edq1WQUsf_-78" edge="1">
          <mxGeometry relative="1" as="geometry" />
        </mxCell>
        <mxCell id="jxzHoHlwi5edq1WQUsf_-75" style="edgeStyle=orthogonalEdgeStyle;rounded=0;orthogonalLoop=1;jettySize=auto;html=1;entryX=0;entryY=0.5;entryDx=0;entryDy=0;endArrow=none;endFill=0;exitX=1;exitY=0.5;exitDx=0;exitDy=0;" parent="1" source="jxzHoHlwi5edq1WQUsf_-123" target="jxzHoHlwi5edq1WQUsf_-115" edge="1">
          <mxGeometry relative="1" as="geometry" />
        </mxCell>
        <mxCell id="jxzHoHlwi5edq1WQUsf_-76" value="" style="group" parent="1" vertex="1" connectable="0">
          <mxGeometry x="1077.5" y="-790" width="212.5" height="130" as="geometry" />
        </mxCell>
        <mxCell id="jxzHoHlwi5edq1WQUsf_-77" value="" style="group" parent="jxzHoHlwi5edq1WQUsf_-76" vertex="1" connectable="0">
          <mxGeometry width="172.5" height="130" as="geometry" />
        </mxCell>
        <mxCell id="jxzHoHlwi5edq1WQUsf_-78" value="SETTORE" style="rounded=1;whiteSpace=wrap;html=1;" parent="jxzHoHlwi5edq1WQUsf_-77" vertex="1">
          <mxGeometry x="52.5" width="120" height="60" as="geometry" />
        </mxCell>
        <mxCell id="jxzHoHlwi5edq1WQUsf_-79" value="Codice&lt;br&gt;Settore" style="text;html=1;strokeColor=none;fillColor=none;align=center;verticalAlign=middle;whiteSpace=wrap;rounded=0;rotation=0;" parent="jxzHoHlwi5edq1WQUsf_-77" vertex="1">
          <mxGeometry x="52.5" y="80" width="60" height="50" as="geometry" />
        </mxCell>
        <mxCell id="jxzHoHlwi5edq1WQUsf_-80" style="rounded=0;orthogonalLoop=1;jettySize=auto;html=1;startArrow=oval;startFill=0;endArrow=none;endFill=0;exitX=0.5;exitY=0;exitDx=0;exitDy=0;entryX=0.25;entryY=0;entryDx=0;entryDy=0;sourcePerimeterSpacing=0;" parent="jxzHoHlwi5edq1WQUsf_-77" source="jxzHoHlwi5edq1WQUsf_-79" edge="1">
          <mxGeometry relative="1" as="geometry">
            <mxPoint x="82.15999999999997" y="80" as="sourcePoint" />
            <mxPoint x="82.15999999999997" y="60" as="targetPoint" />
          </mxGeometry>
        </mxCell>
        <mxCell id="jxzHoHlwi5edq1WQUsf_-81" style="rounded=0;orthogonalLoop=1;jettySize=auto;html=1;startArrow=oval;startFill=1;endArrow=none;endFill=0;edgeStyle=orthogonalEdgeStyle;" parent="jxzHoHlwi5edq1WQUsf_-77" edge="1">
          <mxGeometry relative="1" as="geometry">
            <mxPoint x="102.5" y="70" as="targetPoint" />
            <mxPoint x="42.5" y="10" as="sourcePoint" />
            <Array as="points">
              <mxPoint x="42.5" y="70" />
              <mxPoint x="102.5" y="70" />
            </Array>
          </mxGeometry>
        </mxCell>
        <mxCell id="jxzHoHlwi5edq1WQUsf_-82" value="(1,1)" style="text;html=1;strokeColor=none;fillColor=none;align=center;verticalAlign=middle;whiteSpace=wrap;rounded=0;" parent="jxzHoHlwi5edq1WQUsf_-77" vertex="1">
          <mxGeometry width="40" height="30" as="geometry" />
        </mxCell>
        <mxCell id="jxzHoHlwi5edq1WQUsf_-83" value="(0,N)" style="text;html=1;strokeColor=none;fillColor=none;align=center;verticalAlign=middle;whiteSpace=wrap;rounded=0;" parent="jxzHoHlwi5edq1WQUsf_-76" vertex="1">
          <mxGeometry x="172.5" width="40" height="30" as="geometry" />
        </mxCell>
        <mxCell id="jxzHoHlwi5edq1WQUsf_-84" style="edgeStyle=orthogonalEdgeStyle;rounded=0;orthogonalLoop=1;jettySize=auto;html=1;entryX=0.5;entryY=1;entryDx=0;entryDy=0;startArrow=none;startFill=0;endArrow=none;endFill=0;exitX=0.5;exitY=0;exitDx=0;exitDy=0;" parent="1" source="jxzHoHlwi5edq1WQUsf_-90" target="jxzHoHlwi5edq1WQUsf_-86" edge="1">
          <mxGeometry relative="1" as="geometry" />
        </mxCell>
        <mxCell id="jxzHoHlwi5edq1WQUsf_-85" style="edgeStyle=orthogonalEdgeStyle;rounded=0;orthogonalLoop=1;jettySize=auto;html=1;entryX=0.75;entryY=1;entryDx=0;entryDy=0;startArrow=none;startFill=0;endArrow=none;endFill=0;exitX=0.5;exitY=0;exitDx=0;exitDy=0;" parent="1" source="jxzHoHlwi5edq1WQUsf_-86" target="jxzHoHlwi5edq1WQUsf_-115" edge="1">
          <mxGeometry relative="1" as="geometry" />
        </mxCell>
        <mxCell id="jxzHoHlwi5edq1WQUsf_-86" value="COPIA" style="rhombus;whiteSpace=wrap;html=1;" parent="1" vertex="1">
          <mxGeometry x="1537.5" y="-670" width="120" height="80" as="geometry" />
        </mxCell>
        <mxCell id="jxzHoHlwi5edq1WQUsf_-87" style="edgeStyle=orthogonalEdgeStyle;rounded=0;orthogonalLoop=1;jettySize=auto;html=1;entryX=0.25;entryY=0;entryDx=0;entryDy=0;startArrow=none;startFill=0;endArrow=none;endFill=0;exitX=1;exitY=0.5;exitDx=0;exitDy=0;" parent="1" source="jxzHoHlwi5edq1WQUsf_-89" target="jxzHoHlwi5edq1WQUsf_-90" edge="1">
          <mxGeometry relative="1" as="geometry" />
        </mxCell>
        <mxCell id="jxzHoHlwi5edq1WQUsf_-88" style="edgeStyle=orthogonalEdgeStyle;rounded=0;orthogonalLoop=1;jettySize=auto;html=1;entryX=0;entryY=0.25;entryDx=0;entryDy=0;startArrow=none;startFill=0;endArrow=none;endFill=0;exitX=0.5;exitY=1;exitDx=0;exitDy=0;" parent="1" source="jxzHoHlwi5edq1WQUsf_-89" target="jxzHoHlwi5edq1WQUsf_-90" edge="1">
          <mxGeometry relative="1" as="geometry" />
        </mxCell>
        <mxCell id="jxzHoHlwi5edq1WQUsf_-89" value="REMAKE" style="rhombus;whiteSpace=wrap;html=1;" parent="1" vertex="1">
          <mxGeometry x="1397.5" y="-620" width="120" height="80" as="geometry" />
        </mxCell>
        <mxCell id="jxzHoHlwi5edq1WQUsf_-90" value="FILM" style="rounded=1;whiteSpace=wrap;html=1;" parent="1" vertex="1">
          <mxGeometry x="1537.5" y="-530" width="120" height="60" as="geometry" />
        </mxCell>
        <mxCell id="jxzHoHlwi5edq1WQUsf_-91" value="(1,N)" style="text;html=1;strokeColor=none;fillColor=none;align=center;verticalAlign=middle;whiteSpace=wrap;rounded=0;" parent="1" vertex="1">
          <mxGeometry x="1597.5" y="-560" width="30" height="30" as="geometry" />
        </mxCell>
        <mxCell id="jxzHoHlwi5edq1WQUsf_-92" value="" style="group;align=right;" parent="1" vertex="1" connectable="0">
          <mxGeometry x="1477.5" y="-530" width="60" height="30" as="geometry" />
        </mxCell>
        <mxCell id="jxzHoHlwi5edq1WQUsf_-93" value="Remake" style="text;html=1;strokeColor=none;fillColor=none;align=right;verticalAlign=middle;whiteSpace=wrap;rounded=0;spacing=2;horizontal=1;spacingTop=0;" parent="jxzHoHlwi5edq1WQUsf_-92" vertex="1">
          <mxGeometry width="60" height="15" as="geometry" />
        </mxCell>
        <mxCell id="jxzHoHlwi5edq1WQUsf_-94" value="(0,1)" style="text;html=1;strokeColor=none;fillColor=none;align=center;verticalAlign=middle;whiteSpace=wrap;rounded=0;" parent="jxzHoHlwi5edq1WQUsf_-92" vertex="1">
          <mxGeometry x="30" y="15" width="30" height="15" as="geometry" />
        </mxCell>
        <mxCell id="jxzHoHlwi5edq1WQUsf_-95" value="Originale&lt;br&gt;(0,N)" style="text;html=1;strokeColor=none;fillColor=none;align=right;verticalAlign=middle;whiteSpace=wrap;rounded=0;spacing=2;horizontal=1;spacingTop=0;" parent="1" vertex="1">
          <mxGeometry x="1507.5" y="-562.5" width="60" height="32.5" as="geometry" />
        </mxCell>
        <mxCell id="jxzHoHlwi5edq1WQUsf_-96" value="Titolo" style="text;html=1;strokeColor=none;fillColor=none;align=center;verticalAlign=middle;whiteSpace=wrap;rounded=0;rotation=30;" parent="1" vertex="1">
          <mxGeometry x="1527.5" y="-440" width="50" height="20" as="geometry" />
        </mxCell>
        <mxCell id="jxzHoHlwi5edq1WQUsf_-97" value="Regista" style="text;html=1;strokeColor=none;fillColor=none;align=center;verticalAlign=middle;whiteSpace=wrap;rounded=0;rotation=30;" parent="1" vertex="1">
          <mxGeometry x="1555.42" y="-439.7502540378444" width="60" height="26.34" as="geometry" />
        </mxCell>
        <mxCell id="jxzHoHlwi5edq1WQUsf_-98" style="rounded=0;orthogonalLoop=1;jettySize=auto;html=1;startArrow=oval;startFill=0;endArrow=none;endFill=0;exitX=0.25;exitY=0;exitDx=0;exitDy=0;sourcePerimeterSpacing=0;edgeStyle=orthogonalEdgeStyle;entryX=0.075;entryY=0.998;entryDx=0;entryDy=0;entryPerimeter=0;" parent="1" source="jxzHoHlwi5edq1WQUsf_-96" target="jxzHoHlwi5edq1WQUsf_-90" edge="1">
          <mxGeometry relative="1" as="geometry">
            <mxPoint x="-439.97038105676654" y="-421.8301270189222" as="sourcePoint" />
            <mxPoint x="-440.0000000000001" y="-446.3397459621556" as="targetPoint" />
          </mxGeometry>
        </mxCell>
        <mxCell id="jxzHoHlwi5edq1WQUsf_-99" style="rounded=0;orthogonalLoop=1;jettySize=auto;html=1;startArrow=oval;startFill=0;endArrow=none;endFill=0;exitX=0.25;exitY=0;exitDx=0;exitDy=0;sourcePerimeterSpacing=0;edgeStyle=orthogonalEdgeStyle;entryX=0.344;entryY=1.007;entryDx=0;entryDy=0;entryPerimeter=0;" parent="1" source="jxzHoHlwi5edq1WQUsf_-97" target="jxzHoHlwi5edq1WQUsf_-90" edge="1">
          <mxGeometry relative="1" as="geometry">
            <mxPoint x="-409.82531754730553" y="-421.13" as="sourcePoint" />
            <mxPoint x="-410" y="-446.3397459621557" as="targetPoint" />
          </mxGeometry>
        </mxCell>
        <mxCell id="jxzHoHlwi5edq1WQUsf_-100" value="" style="endArrow=none;html=1;startArrow=oval;startFill=1;" parent="1" edge="1">
          <mxGeometry width="50" height="50" relative="1" as="geometry">
            <mxPoint x="1534.5" y="-460" as="sourcePoint" />
            <mxPoint x="1587.5" y="-460" as="targetPoint" />
          </mxGeometry>
        </mxCell>
        <mxCell id="jxzHoHlwi5edq1WQUsf_-101" value="Anno" style="text;html=1;strokeColor=none;fillColor=none;align=center;verticalAlign=middle;whiteSpace=wrap;rounded=0;rotation=30;" parent="1" vertex="1">
          <mxGeometry x="1587.5" y="-439.88" width="50" height="20" as="geometry" />
        </mxCell>
        <mxCell id="jxzHoHlwi5edq1WQUsf_-102" style="rounded=0;orthogonalLoop=1;jettySize=auto;html=1;startArrow=oval;startFill=0;endArrow=none;endFill=0;exitX=0.25;exitY=0;exitDx=0;exitDy=0;sourcePerimeterSpacing=0;edgeStyle=orthogonalEdgeStyle;entryX=0.075;entryY=0.998;entryDx=0;entryDy=0;entryPerimeter=0;" parent="1" source="jxzHoHlwi5edq1WQUsf_-101" edge="1">
          <mxGeometry relative="1" as="geometry">
            <mxPoint x="-379.97038105676654" y="-421.7101270189222" as="sourcePoint" />
            <mxPoint x="1606.5" y="-470" as="targetPoint" />
          </mxGeometry>
        </mxCell>
        <mxCell id="jxzHoHlwi5edq1WQUsf_-103" value="Attori" style="text;html=1;strokeColor=none;fillColor=none;align=center;verticalAlign=middle;whiteSpace=wrap;rounded=0;rotation=30;" parent="1" vertex="1">
          <mxGeometry x="1614.5" y="-440" width="50" height="20" as="geometry" />
        </mxCell>
        <mxCell id="jxzHoHlwi5edq1WQUsf_-104" style="rounded=0;orthogonalLoop=1;jettySize=auto;html=1;startArrow=oval;startFill=0;endArrow=none;endFill=0;exitX=0.25;exitY=0;exitDx=0;exitDy=0;sourcePerimeterSpacing=0;edgeStyle=orthogonalEdgeStyle;entryX=0.075;entryY=0.998;entryDx=0;entryDy=0;entryPerimeter=0;" parent="1" source="jxzHoHlwi5edq1WQUsf_-103" edge="1">
          <mxGeometry relative="1" as="geometry">
            <mxPoint x="-352.97038105676654" y="-421.8301270189222" as="sourcePoint" />
            <mxPoint x="1633.5" y="-470.11999999999944" as="targetPoint" />
          </mxGeometry>
        </mxCell>
        <mxCell id="jxzHoHlwi5edq1WQUsf_-105" value="(1,N)" style="text;html=1;strokeColor=none;fillColor=none;align=center;verticalAlign=middle;whiteSpace=wrap;rounded=0;" parent="1" vertex="1">
          <mxGeometry x="1637.5" y="-470" width="23" height="20" as="geometry" />
        </mxCell>
        <mxCell id="jxzHoHlwi5edq1WQUsf_-106" style="edgeStyle=orthogonalEdgeStyle;rounded=0;orthogonalLoop=1;jettySize=auto;html=1;startArrow=none;startFill=0;endArrow=none;endFill=0;fillColor=#000000;" parent="1" edge="1">
          <mxGeometry relative="1" as="geometry">
            <mxPoint x="1737.5" y="-500" as="targetPoint" />
            <mxPoint x="1777.5" y="-459.9411764705883" as="sourcePoint" />
          </mxGeometry>
        </mxCell>
        <mxCell id="jxzHoHlwi5edq1WQUsf_-107" style="edgeStyle=orthogonalEdgeStyle;rounded=0;orthogonalLoop=1;jettySize=auto;html=1;startArrow=none;startFill=0;endArrow=none;endFill=0;fillColor=#000000;" parent="1" edge="1">
          <mxGeometry relative="1" as="geometry">
            <mxPoint x="1737.5" y="-500" as="targetPoint" />
            <mxPoint x="1777.5" y="-539.9411764705883" as="sourcePoint" />
          </mxGeometry>
        </mxCell>
        <mxCell id="jxzHoHlwi5edq1WQUsf_-108" value="" style="shape=flexArrow;endArrow=classic;html=1;strokeWidth=1;width=21.568627450980394;endSize=7.73921568627451;entryX=1;entryY=0.5;entryDx=0;entryDy=0;fillColor=#000000;" parent="1" target="jxzHoHlwi5edq1WQUsf_-90" edge="1">
          <mxGeometry width="50" height="50" relative="1" as="geometry">
            <mxPoint x="1737.5" y="-500" as="sourcePoint" />
            <mxPoint x="-270" y="-511.3397459621556" as="targetPoint" />
          </mxGeometry>
        </mxCell>
        <mxCell id="jxzHoHlwi5edq1WQUsf_-109" value="Costo Noleggio" style="text;html=1;strokeColor=none;fillColor=none;align=center;verticalAlign=middle;whiteSpace=wrap;rounded=0;rotation=330;" parent="1" vertex="1">
          <mxGeometry x="1617.5" y="-597.5" width="87" height="20" as="geometry" />
        </mxCell>
        <mxCell id="jxzHoHlwi5edq1WQUsf_-110" value="Costo Giornaliero" style="text;html=1;strokeColor=none;fillColor=none;align=center;verticalAlign=middle;whiteSpace=wrap;rounded=0;rotation=330;" parent="1" vertex="1">
          <mxGeometry x="1637.5" y="-597.5" width="110" height="20" as="geometry" />
        </mxCell>
        <mxCell id="jxzHoHlwi5edq1WQUsf_-111" style="rounded=0;orthogonalLoop=1;jettySize=auto;html=1;startArrow=none;startFill=0;endArrow=oval;endFill=0;exitX=0.25;exitY=0;exitDx=0;exitDy=0;sourcePerimeterSpacing=0;edgeStyle=orthogonalEdgeStyle;entryX=0.075;entryY=0.998;entryDx=0;entryDy=0;entryPerimeter=0;" parent="1" edge="1">
          <mxGeometry relative="1" as="geometry">
            <mxPoint x="1635.0746824526946" y="-530.0002540378446" as="sourcePoint" />
            <mxPoint x="1634.8999999999996" y="-555.2099999999996" as="targetPoint" />
          </mxGeometry>
        </mxCell>
        <mxCell id="jxzHoHlwi5edq1WQUsf_-112" style="rounded=0;orthogonalLoop=1;jettySize=auto;html=1;startArrow=none;startFill=0;endArrow=oval;endFill=0;exitX=0.25;exitY=0;exitDx=0;exitDy=0;sourcePerimeterSpacing=0;edgeStyle=orthogonalEdgeStyle;entryX=0.075;entryY=0.998;entryDx=0;entryDy=0;entryPerimeter=0;" parent="1" edge="1">
          <mxGeometry relative="1" as="geometry">
            <mxPoint x="1650.9746824526947" y="-530.000254037845" as="sourcePoint" />
            <mxPoint x="1650.7999999999997" y="-555.2099999999996" as="targetPoint" />
          </mxGeometry>
        </mxCell>
        <mxCell id="jxzHoHlwi5edq1WQUsf_-113" style="edgeStyle=orthogonalEdgeStyle;rounded=0;orthogonalLoop=1;jettySize=auto;html=1;entryX=1;entryY=0.5;entryDx=0;entryDy=0;endArrow=none;endFill=0;exitX=0;exitY=0.5;exitDx=0;exitDy=0;" parent="1" source="jxzHoHlwi5edq1WQUsf_-128" target="jxzHoHlwi5edq1WQUsf_-115" edge="1">
          <mxGeometry relative="1" as="geometry">
            <mxPoint x="1627.5" y="-760" as="targetPoint" />
          </mxGeometry>
        </mxCell>
        <mxCell id="jxzHoHlwi5edq1WQUsf_-114" value="" style="group" parent="1" vertex="1" connectable="0">
          <mxGeometry x="1467.5" y="-790" width="200" height="120" as="geometry" />
        </mxCell>
        <mxCell id="jxzHoHlwi5edq1WQUsf_-115" value="COPIA FILM" style="rounded=1;whiteSpace=wrap;html=1;" parent="jxzHoHlwi5edq1WQUsf_-114" vertex="1">
          <mxGeometry x="40" width="120" height="60" as="geometry" />
        </mxCell>
        <mxCell id="jxzHoHlwi5edq1WQUsf_-116" value="ID Copia" style="text;html=1;strokeColor=none;fillColor=none;align=center;verticalAlign=middle;whiteSpace=wrap;rounded=0;rotation=0;" parent="jxzHoHlwi5edq1WQUsf_-114" vertex="1">
          <mxGeometry x="40" y="80" width="60" height="40" as="geometry" />
        </mxCell>
        <mxCell id="jxzHoHlwi5edq1WQUsf_-117" style="rounded=0;orthogonalLoop=1;jettySize=auto;html=1;startArrow=oval;startFill=0;endArrow=none;endFill=0;exitX=0.5;exitY=0;exitDx=0;exitDy=0;sourcePerimeterSpacing=0;entryX=0.25;entryY=1;entryDx=0;entryDy=0;" parent="jxzHoHlwi5edq1WQUsf_-114" source="jxzHoHlwi5edq1WQUsf_-116" target="jxzHoHlwi5edq1WQUsf_-115" edge="1">
          <mxGeometry relative="1" as="geometry">
            <mxPoint x="-190.34000000000003" y="280" as="sourcePoint" />
            <mxPoint x="100" y="70" as="targetPoint" />
          </mxGeometry>
        </mxCell>
        <mxCell id="jxzHoHlwi5edq1WQUsf_-118" value="" style="endArrow=none;html=1;startArrow=oval;startFill=1;" parent="jxzHoHlwi5edq1WQUsf_-114" edge="1">
          <mxGeometry width="50" height="50" relative="1" as="geometry">
            <mxPoint x="50" y="70" as="sourcePoint" />
            <mxPoint x="150" y="70" as="targetPoint" />
          </mxGeometry>
        </mxCell>
        <mxCell id="jxzHoHlwi5edq1WQUsf_-119" value="(1,1)" style="text;html=1;strokeColor=none;fillColor=none;align=center;verticalAlign=middle;whiteSpace=wrap;rounded=0;" parent="jxzHoHlwi5edq1WQUsf_-114" vertex="1">
          <mxGeometry x="130" y="70" width="40" height="30" as="geometry" />
        </mxCell>
        <mxCell id="jxzHoHlwi5edq1WQUsf_-120" value="(1,1)" style="text;html=1;strokeColor=none;fillColor=none;align=center;verticalAlign=middle;whiteSpace=wrap;rounded=0;" parent="jxzHoHlwi5edq1WQUsf_-114" vertex="1">
          <mxGeometry width="40" height="30" as="geometry" />
        </mxCell>
        <mxCell id="jxzHoHlwi5edq1WQUsf_-121" value="(0,N)" style="text;html=1;strokeColor=none;fillColor=none;align=center;verticalAlign=middle;whiteSpace=wrap;rounded=0;" parent="jxzHoHlwi5edq1WQUsf_-114" vertex="1">
          <mxGeometry x="160" width="40" height="30" as="geometry" />
        </mxCell>
        <mxCell id="jxzHoHlwi5edq1WQUsf_-128" value="PRESO" style="rhombus;whiteSpace=wrap;html=1;" parent="1" vertex="1">
          <mxGeometry x="1695" y="-800" width="120" height="80" as="geometry" />
        </mxCell>
        <mxCell id="jxzHoHlwi5edq1WQUsf_-133" value="FILM&lt;br&gt;CLASSICI" style="rounded=1;whiteSpace=wrap;html=1;" parent="1" vertex="1">
          <mxGeometry x="1770" y="-490.06" width="120" height="60" as="geometry" />
        </mxCell>
        <mxCell id="jxzHoHlwi5edq1WQUsf_-134" value="FILM&lt;br&gt;NUOVI" style="rounded=1;whiteSpace=wrap;html=1;" parent="1" vertex="1">
          <mxGeometry x="1770" y="-569.94" width="120" height="60" as="geometry" />
        </mxCell>
        <mxCell id="jxzHoHlwi5edq1WQUsf_-135" value="CLIENTE" style="rounded=1;whiteSpace=wrap;html=1;" parent="1" vertex="1">
          <mxGeometry x="2035" y="-1076.29" width="120" height="60" as="geometry" />
        </mxCell>
        <mxCell id="jxzHoHlwi5edq1WQUsf_-136" value="(1,N)" style="text;html=1;strokeColor=none;fillColor=none;align=center;verticalAlign=middle;whiteSpace=wrap;rounded=0;" parent="1" vertex="1">
          <mxGeometry x="1995" y="-1074.1244760137313" width="40" height="27.83" as="geometry" />
        </mxCell>
        <mxCell id="jxzHoHlwi5edq1WQUsf_-137" value="CF Cliente" style="text;html=1;strokeColor=none;fillColor=none;align=center;verticalAlign=middle;whiteSpace=wrap;rounded=0;rotation=330;" parent="1" vertex="1">
          <mxGeometry x="2039.4" y="-1133.6444760137313" width="60.67" height="17.31" as="geometry" />
        </mxCell>
        <mxCell id="jxzHoHlwi5edq1WQUsf_-138" style="rounded=0;orthogonalLoop=1;jettySize=auto;html=1;startArrow=oval;startFill=1;endArrow=none;endFill=0;sourcePerimeterSpacing=0;edgeStyle=orthogonalEdgeStyle;entryX=0.105;entryY=0.004;entryDx=0;entryDy=0;entryPerimeter=0;exitX=0;exitY=1;exitDx=0;exitDy=0;" parent="1" source="jxzHoHlwi5edq1WQUsf_-137" target="jxzHoHlwi5edq1WQUsf_-135" edge="1">
          <mxGeometry relative="1" as="geometry">
            <mxPoint x="-482.5" y="-556.2855239862686" as="sourcePoint" />
            <mxPoint x="-382.5" y="-543.2855239862686" as="targetPoint" />
          </mxGeometry>
        </mxCell>
        <mxCell id="jxzHoHlwi5edq1WQUsf_-139" value="Nome Cliente" style="text;html=1;strokeColor=none;fillColor=none;align=center;verticalAlign=middle;whiteSpace=wrap;rounded=0;rotation=330;" parent="1" vertex="1">
          <mxGeometry x="2067.5" y="-1132.6999999999998" width="80" height="9.48" as="geometry" />
        </mxCell>
        <mxCell id="jxzHoHlwi5edq1WQUsf_-140" value="Cognome Cliente" style="text;html=1;strokeColor=none;fillColor=none;align=center;verticalAlign=middle;whiteSpace=wrap;rounded=0;rotation=330;" parent="1" vertex="1">
          <mxGeometry x="2101.87" y="-1140" width="100" height="13.07" as="geometry" />
        </mxCell>
        <mxCell id="jxzHoHlwi5edq1WQUsf_-141" style="rounded=0;orthogonalLoop=1;jettySize=auto;html=1;startArrow=oval;startFill=0;endArrow=none;endFill=0;sourcePerimeterSpacing=0;edgeStyle=orthogonalEdgeStyle;entryX=0.105;entryY=0.004;entryDx=0;entryDy=0;entryPerimeter=0;exitX=0;exitY=1;exitDx=0;exitDy=0;" parent="1" edge="1">
          <mxGeometry relative="1" as="geometry">
            <mxPoint x="2082.5" y="-1102.5604114568505" as="sourcePoint" />
            <mxPoint x="2082.5" y="-1076.29" as="targetPoint" />
          </mxGeometry>
        </mxCell>
        <mxCell id="jxzHoHlwi5edq1WQUsf_-142" style="rounded=0;orthogonalLoop=1;jettySize=auto;html=1;startArrow=oval;startFill=0;endArrow=none;endFill=0;sourcePerimeterSpacing=0;edgeStyle=orthogonalEdgeStyle;entryX=0.105;entryY=0.004;entryDx=0;entryDy=0;entryPerimeter=0;exitX=0;exitY=1;exitDx=0;exitDy=0;" parent="1" edge="1">
          <mxGeometry relative="1" as="geometry">
            <mxPoint x="2113.9641193762" y="-1102.5604114568505" as="sourcePoint" />
            <mxPoint x="2113.7700000000004" y="-1076.29" as="targetPoint" />
          </mxGeometry>
        </mxCell>
        <mxCell id="jxzHoHlwi5edq1WQUsf_-143" style="rounded=0;orthogonalLoop=1;jettySize=auto;html=1;startArrow=oval;startFill=0;endArrow=none;endFill=0;sourcePerimeterSpacing=0;edgeStyle=orthogonalEdgeStyle;entryX=0.105;entryY=0.004;entryDx=0;entryDy=0;entryPerimeter=0;exitX=0;exitY=1;exitDx=0;exitDy=0;" parent="1" edge="1">
          <mxGeometry relative="1" as="geometry">
            <mxPoint x="2148.924119376199" y="-1102.5604114568505" as="sourcePoint" />
            <mxPoint x="2148.7300000000005" y="-1076.29" as="targetPoint" />
          </mxGeometry>
        </mxCell>
        <mxCell id="jxzHoHlwi5edq1WQUsf_-144" value="Indirizzo Cliente" style="text;html=1;strokeColor=none;fillColor=none;align=center;verticalAlign=middle;whiteSpace=wrap;rounded=0;rotation=30;" parent="1" vertex="1">
          <mxGeometry x="2031.5500000000002" y="-975.8" width="107.03" height="26.76" as="geometry" />
        </mxCell>
        <mxCell id="jxzHoHlwi5edq1WQUsf_-145" style="rounded=0;orthogonalLoop=1;jettySize=auto;html=1;startArrow=none;startFill=0;endArrow=oval;endFill=0;sourcePerimeterSpacing=0;edgeStyle=orthogonalEdgeStyle;entryX=0.105;entryY=0.004;entryDx=0;entryDy=0;entryPerimeter=0;exitX=0;exitY=1;exitDx=0;exitDy=0;" parent="1" edge="1">
          <mxGeometry relative="1" as="geometry">
            <mxPoint x="2047.6941193761995" y="-1016.29041145685" as="sourcePoint" />
            <mxPoint x="2047.5" y="-990.0199999999995" as="targetPoint" />
          </mxGeometry>
        </mxCell>
        <mxCell id="jxzHoHlwi5edq1WQUsf_-146" value="Telefono&amp;nbsp;Cliente" style="text;html=1;strokeColor=none;fillColor=none;align=center;verticalAlign=middle;whiteSpace=wrap;rounded=0;rotation=30;spacingLeft=2;spacingTop=0;" parent="1" vertex="1">
          <mxGeometry x="2060.1800000000003" y="-976.05" width="107.39" height="27.12" as="geometry" />
        </mxCell>
        <mxCell id="jxzHoHlwi5edq1WQUsf_-147" style="rounded=0;orthogonalLoop=1;jettySize=auto;html=1;startArrow=none;startFill=0;endArrow=oval;endFill=0;sourcePerimeterSpacing=0;edgeStyle=orthogonalEdgeStyle;entryX=0.105;entryY=0.004;entryDx=0;entryDy=0;entryPerimeter=0;exitX=0;exitY=1;exitDx=0;exitDy=0;" parent="1" edge="1">
          <mxGeometry relative="1" as="geometry">
            <mxPoint x="2082.5" y="-1016.29041145685" as="sourcePoint" />
            <mxPoint x="2082.5" y="-990.0199999999995" as="targetPoint" />
          </mxGeometry>
        </mxCell>
        <mxCell id="jxzHoHlwi5edq1WQUsf_-148" value="Cellulare Cliente" style="text;html=1;strokeColor=none;fillColor=none;align=center;verticalAlign=middle;whiteSpace=wrap;rounded=0;rotation=30;" parent="1" vertex="1">
          <mxGeometry x="2098.44" y="-967.77" width="110" height="11.98" as="geometry" />
        </mxCell>
        <mxCell id="jxzHoHlwi5edq1WQUsf_-149" style="rounded=0;orthogonalLoop=1;jettySize=auto;html=1;startArrow=none;startFill=0;endArrow=oval;endFill=0;sourcePerimeterSpacing=0;edgeStyle=orthogonalEdgeStyle;entryX=0.105;entryY=0.004;entryDx=0;entryDy=0;entryPerimeter=0;exitX=0;exitY=1;exitDx=0;exitDy=0;" parent="1" edge="1">
          <mxGeometry relative="1" as="geometry">
            <mxPoint x="2114.7241193761993" y="-1016.29041145685" as="sourcePoint" />
            <mxPoint x="2114.5300000000007" y="-990.0199999999995" as="targetPoint" />
          </mxGeometry>
        </mxCell>
        <mxCell id="jxzHoHlwi5edq1WQUsf_-150" style="rounded=0;orthogonalLoop=1;jettySize=auto;html=1;startArrow=none;startFill=0;endArrow=oval;endFill=0;sourcePerimeterSpacing=0;edgeStyle=orthogonalEdgeStyle;entryX=0.105;entryY=0.004;entryDx=0;entryDy=0;entryPerimeter=0;exitX=0;exitY=1;exitDx=0;exitDy=0;" parent="1" edge="1">
          <mxGeometry relative="1" as="geometry">
            <mxPoint x="2148.7641193761992" y="-1016.29041145685" as="sourcePoint" />
            <mxPoint x="2148.5699999999997" y="-990.0199999999995" as="targetPoint" />
          </mxGeometry>
        </mxCell>
        <mxCell id="jxzHoHlwi5edq1WQUsf_-151" value="(0,N)" style="text;html=1;strokeColor=none;fillColor=none;align=center;verticalAlign=middle;whiteSpace=wrap;rounded=0;" parent="1" vertex="1">
          <mxGeometry x="2047.5" y="-1014.81" width="30" height="14.81" as="geometry" />
        </mxCell>
        <mxCell id="jxzHoHlwi5edq1WQUsf_-152" value="(0,N)" style="text;html=1;strokeColor=none;fillColor=none;align=center;verticalAlign=middle;whiteSpace=wrap;rounded=0;" parent="1" vertex="1">
          <mxGeometry x="2078.15" y="-1015.55" width="39.35" height="15.55" as="geometry" />
        </mxCell>
        <mxCell id="jxzHoHlwi5edq1WQUsf_-153" value="(0,N)" style="text;html=1;strokeColor=none;fillColor=none;align=center;verticalAlign=middle;whiteSpace=wrap;rounded=0;" parent="1" vertex="1">
          <mxGeometry x="2147.5" y="-1014.81" width="30.85" height="14.81" as="geometry" />
        </mxCell>
        <mxCell id="jxzHoHlwi5edq1WQUsf_-154" value="(0,N)" style="text;html=1;strokeColor=none;fillColor=none;align=center;verticalAlign=middle;whiteSpace=wrap;rounded=0;" parent="1" vertex="1">
          <mxGeometry x="2118.58" y="-1014.07" width="20" height="14.07" as="geometry" />
        </mxCell>
        <mxCell id="jxzHoHlwi5edq1WQUsf_-155" style="edgeStyle=none;rounded=0;orthogonalLoop=1;jettySize=auto;html=1;entryX=0;entryY=0.5;entryDx=0;entryDy=0;startArrow=none;startFill=0;endArrow=none;endFill=0;fillColor=#000000;exitX=1;exitY=0.5;exitDx=0;exitDy=0;" parent="1" source="jxzHoHlwi5edq1WQUsf_-128" target="jxzHoHlwi5edq1WQUsf_-160" edge="1">
          <mxGeometry relative="1" as="geometry">
            <mxPoint x="1820" y="-764.1199999999999" as="sourcePoint" />
          </mxGeometry>
        </mxCell>
        <mxCell id="jxzHoHlwi5edq1WQUsf_-156" style="edgeStyle=none;rounded=0;orthogonalLoop=1;jettySize=auto;html=1;entryX=0.5;entryY=0;entryDx=0;entryDy=0;startArrow=none;startFill=0;endArrow=none;endFill=0;fillColor=#000000;exitX=0.5;exitY=1;exitDx=0;exitDy=0;" parent="1" source="jxzHoHlwi5edq1WQUsf_-158" target="jxzHoHlwi5edq1WQUsf_-160" edge="1">
          <mxGeometry relative="1" as="geometry" />
        </mxCell>
        <mxCell id="jxzHoHlwi5edq1WQUsf_-157" style="edgeStyle=orthogonalEdgeStyle;rounded=0;orthogonalLoop=1;jettySize=auto;html=1;entryX=0;entryY=0.5;entryDx=0;entryDy=0;startArrow=none;startFill=0;endArrow=none;endFill=0;fillColor=#000000;exitX=0.5;exitY=0;exitDx=0;exitDy=0;" parent="1" source="jxzHoHlwi5edq1WQUsf_-158" target="jxzHoHlwi5edq1WQUsf_-135" edge="1">
          <mxGeometry relative="1" as="geometry" />
        </mxCell>
        <mxCell id="jxzHoHlwi5edq1WQUsf_-158" value="EFFETTUA" style="rhombus;whiteSpace=wrap;html=1;" parent="1" vertex="1">
          <mxGeometry x="1885" y="-954.1199999999999" width="120" height="80" as="geometry" />
        </mxCell>
        <mxCell id="jxzHoHlwi5edq1WQUsf_-159" value="" style="group" parent="1" vertex="1" connectable="0">
          <mxGeometry x="1845" y="-819.9999999999999" width="170" height="150" as="geometry" />
        </mxCell>
        <mxCell id="jxzHoHlwi5edq1WQUsf_-160" value="NOLEGGIO" style="rounded=1;whiteSpace=wrap;html=1;" parent="jxzHoHlwi5edq1WQUsf_-159" vertex="1">
          <mxGeometry x="40" y="29.999999999999943" width="120" height="60" as="geometry" />
        </mxCell>
        <mxCell id="jxzHoHlwi5edq1WQUsf_-161" value="Data Resistuzione" style="text;html=1;strokeColor=none;fillColor=none;align=center;verticalAlign=middle;whiteSpace=wrap;rounded=0;rotation=0;" parent="jxzHoHlwi5edq1WQUsf_-159" vertex="1">
          <mxGeometry x="110" y="110" width="60" height="40" as="geometry" />
        </mxCell>
        <mxCell id="jxzHoHlwi5edq1WQUsf_-162" style="rounded=0;orthogonalLoop=1;jettySize=auto;html=1;startArrow=oval;startFill=0;endArrow=none;endFill=0;exitX=0.5;exitY=0;exitDx=0;exitDy=0;entryX=0.75;entryY=1;entryDx=0;entryDy=0;sourcePerimeterSpacing=0;" parent="jxzHoHlwi5edq1WQUsf_-159" source="jxzHoHlwi5edq1WQUsf_-161" edge="1">
          <mxGeometry relative="1" as="geometry">
            <mxPoint x="-2425.34" y="520" as="sourcePoint" />
            <mxPoint x="140" y="90" as="targetPoint" />
          </mxGeometry>
        </mxCell>
        <mxCell id="jxzHoHlwi5edq1WQUsf_-163" value="(1,1)" style="text;html=1;strokeColor=none;fillColor=none;align=center;verticalAlign=middle;whiteSpace=wrap;rounded=0;" parent="jxzHoHlwi5edq1WQUsf_-159" vertex="1">
          <mxGeometry x="100" width="40" height="30" as="geometry" />
        </mxCell>
        <mxCell id="jxzHoHlwi5edq1WQUsf_-164" value="ID Noleggio" style="text;html=1;strokeColor=none;fillColor=none;align=center;verticalAlign=middle;whiteSpace=wrap;rounded=0;rotation=0;" parent="jxzHoHlwi5edq1WQUsf_-159" vertex="1">
          <mxGeometry x="30" y="110" width="60" height="40" as="geometry" />
        </mxCell>
        <mxCell id="jxzHoHlwi5edq1WQUsf_-165" style="rounded=0;orthogonalLoop=1;jettySize=auto;html=1;startArrow=oval;startFill=1;endArrow=none;endFill=0;exitX=0.5;exitY=0;exitDx=0;exitDy=0;sourcePerimeterSpacing=0;entryX=0.25;entryY=1;entryDx=0;entryDy=0;" parent="jxzHoHlwi5edq1WQUsf_-159" source="jxzHoHlwi5edq1WQUsf_-164" edge="1">
          <mxGeometry relative="1" as="geometry">
            <mxPoint x="-2177.84" y="500" as="sourcePoint" />
            <mxPoint x="60" y="90" as="targetPoint" />
          </mxGeometry>
        </mxCell>
        <mxCell id="jxzHoHlwi5edq1WQUsf_-166" value="(1,1)" style="text;html=1;strokeColor=none;fillColor=none;align=center;verticalAlign=middle;whiteSpace=wrap;rounded=0;" parent="jxzHoHlwi5edq1WQUsf_-159" vertex="1">
          <mxGeometry y="30" width="40" height="30" as="geometry" />
        </mxCell>
        <mxCell id="jxzHoHlwi5edq1WQUsf_-167" value="Email Cliente" style="text;html=1;strokeColor=none;fillColor=none;align=center;verticalAlign=middle;whiteSpace=wrap;rounded=0;rotation=30;" parent="1" vertex="1">
          <mxGeometry x="2130.54" y="-978.06" width="99.01" height="27.82" as="geometry" />
        </mxCell>
        <mxCell id="dCOnlXPqv8OF4UtBhpIe-1" value="Numero&lt;br&gt;Copie" style="text;html=1;strokeColor=none;fillColor=none;align=center;verticalAlign=middle;whiteSpace=wrap;rounded=0;rotation=0;" parent="1" vertex="1">
          <mxGeometry x="1447.5" y="-509.99999999999994" width="60" height="50" as="geometry" />
        </mxCell>
        <mxCell id="dCOnlXPqv8OF4UtBhpIe-2" style="rounded=0;orthogonalLoop=1;jettySize=auto;html=1;startArrow=oval;startFill=0;endArrow=none;endFill=0;exitX=1;exitY=0.5;exitDx=0;exitDy=0;entryX=0;entryY=0.75;entryDx=0;entryDy=0;sourcePerimeterSpacing=0;" parent="1" source="dCOnlXPqv8OF4UtBhpIe-1" edge="1">
          <mxGeometry x="1301.25" y="-800" as="geometry">
            <mxPoint x="1127.1599999999999" y="-479.99999999999994" as="sourcePoint" />
            <mxPoint x="1537.5" y="-484.9999999999997" as="targetPoint" />
          </mxGeometry>
        </mxCell>
        <mxCell id="dCOnlXPqv8OF4UtBhpIe-3" value="Posizione" style="text;html=1;strokeColor=none;fillColor=none;align=center;verticalAlign=middle;whiteSpace=wrap;rounded=0;rotation=0;" parent="1" vertex="1">
          <mxGeometry x="1347.5" y="-695" width="60" height="50" as="geometry" />
        </mxCell>
        <mxCell id="dCOnlXPqv8OF4UtBhpIe-4" style="rounded=0;orthogonalLoop=1;jettySize=auto;html=1;startArrow=oval;startFill=0;endArrow=none;endFill=0;exitX=0.5;exitY=0;exitDx=0;exitDy=0;entryX=0.5;entryY=1;entryDx=0;entryDy=0;sourcePerimeterSpacing=0;" parent="1" source="dCOnlXPqv8OF4UtBhpIe-3" edge="1">
          <mxGeometry x="1301.25" y="-800" as="geometry">
            <mxPoint x="1047.1599999999999" y="-489.99999999999994" as="sourcePoint" />
            <mxPoint x="1377.5" y="-720" as="targetPoint" />
          </mxGeometry>
        </mxCell>
        <mxCell id="jxzHoHlwi5edq1WQUsf_-123" value="COLLOCATO" style="rhombus;whiteSpace=wrap;html=1;" parent="1" vertex="1">
          <mxGeometry x="1317.5" y="-800" width="120" height="80" as="geometry" />
        </mxCell>
      </root>
    </mxGraphModel>
  </diagram>
</mxfile>
